{"title":"Alvin.And.The.Chipmunks.Chipwrecked.2011.R5.Cam.AUDiO.XviD-Feel-","uid":6970194,"size":1131318059,"categoryP":"video","categoryS":"movies","magnet":"?xt=urn:btih:a273aabad8e690a4448efa4d56ecd15cf042a1d1&amp;dn=Alvin.And.The.Chipmunks.Chipwrecked.2011.R5.Cam.AUDiO.XviD-Feel-&amp;tr=udp%3A%2F%2Ftracker.openbittorrent.com%3A80&amp;tr=udp%3A%2F%2Fopen.demonii.com%3A1337&amp;tr=udp%3A%2F%2Ftracker.coppersurfer.tk%3A6969&amp;tr=udp%3A%2F%2Fexodus.desync.com%3A6969","seeders":2,"leechers":0,"uploader":"louisem","files":9,"time":1327068469,"description":"Genre:Animation | Comedy | Family\nLanguage:English\nIMDb: http://www.imdb.com/title/tt1615918/\nSource:R5 DVD/BiDA Thanks!\nEncoder:Tony\n\nFormat : AVI\nFormat/Info : Audio Video Interleave\nFile size : 1.05 GiB\nDuration : 1h 23mn\nOverall bit rate : 1 800 Kbps\n\n\nVideo\nID : 0\nFormat : MPEG-4 Visual\nFormat profile : Advanced Simple@L5\nFormat settings, BVOP : 1\nFormat settings, QPel : No\nFormat settings, GMC : No warppoints\nFormat settings, Matrix : Default (H.263)\nCodec ID : XVID\nCodec ID/Hint : XviD\nDuration : 1h 23mn\nBit rate : 1 598 Kbps\nWidth : 640 pixels\nHeight : 344 pixels\nDisplay aspect ratio : 1.860\nFrame rate : 25.000 fps\nColor space : YUV\nChroma subsampling : 4:2:0\nBit depth : 8 bits\nScan type : Progressive\nCompression mode : Lossy\nBits/(Pixel*Frame) : 0.290\nStream size : 956 MiB (89%)\nWriting library : XviD 1.2.1 (UTC 2008-12-04)\n\nAudio\nID : 1\nFormat : AC-3\nFormat/Info : Audio Coding 3\nMode extension : CM (complete main)\nCodec ID : 2000\nDuration : 1h 23mn\nBit rate mode : Constant\nBit rate : 192 Kbps\nChannel(s) : 2 channels\nChannel positions : Front: L R\nSampling rate : 48.0 KHz\nBit depth : 16 bits\nCompression mode : Lossy\nStream size : 115 MiB (11%)\nAlignment : Aligned on interleaves\nInterleave, duration : 40 ms (1.00 video frame)\nInterleave, preload duration : 512 ms\n\nPlot:\nPlaying around while aboard a cruise ship, the Chipmunks and Chipettes accidentally go overboard and end up marooned in a tropical paradise. They discover their new turf is not as deserted as it seems","torrent":{"xt":"urn:btih:a273aabad8e690a4448efa4d56ecd15cf042a1d1","amp;dn":"Alvin.And.The.Chipmunks.Chipwrecked.2011.R5.Cam.AUDiO.XviD-Feel-","amp;tr":["udp%3A%2F%2Ftracker.openbittorrent.com%3A80","udp%3A%2F%2Fopen.demonii.com%3A1337","udp%3A%2F%2Ftracker.coppersurfer.tk%3A6969","udp%3A%2F%2Fexodus.desync.com%3A6969"],"infoHash":"a273aabad8e690a4448efa4d56ecd15cf042a1d1","infoHashBuffer":{"type":"Buffer","data":[162,115,170,186,216,230,144,164,68,142,250,77,86,236,209,92,240,66,161,209]},"announce":[],"urlList":[]}}